<svg width="16" height="13" viewBox="0 0 16 13" fill="none" xmlns="http://www.w3.org/2000/svg">
<path id="Vector" d="M1.46777 3.66131L7.24486 7.47905C7.4855 7.6382 7.76831 7.72314 8.0576 7.72314C8.34689 7.72314 8.6297 7.6382 8.87035 7.47905L14.6474 3.66131M2.93218 11.6452H13.183C13.5714 11.6452 13.9439 11.4922 14.2185 11.22C14.4931 10.9478 14.6474 10.5786 14.6474 10.1936V2.9355C14.6474 2.55051 14.4931 2.18128 14.2185 1.90905C13.9439 1.63682 13.5714 1.48389 13.183 1.48389H2.93218C2.5438 1.48389 2.17132 1.63682 1.89669 1.90905C1.62206 2.18128 1.46777 2.55051 1.46777 2.9355V10.1936C1.46777 10.5786 1.62206 10.9478 1.89669 11.22C2.17132 11.4922 2.5438 11.6452 2.93218 11.6452Z" stroke="white" stroke-width="2" stroke-linecap="round" stroke-linejoin="round"/>
</svg>
