<svg width="20" height="21" viewBox="0 0 20 21" fill="none" xmlns="http://www.w3.org/2000/svg">
<path id="Vector" d="M1.35938 3.74194C1.35938 3.22862 1.56509 2.73632 1.93126 2.37335C2.29743 2.01037 2.79407 1.80646 3.31192 1.80646H6.51409C6.7189 1.80661 6.91848 1.87062 7.08458 1.98941C7.25067 2.1082 7.37487 2.27577 7.43959 2.46839L8.90205 6.81646C8.97615 7.03743 8.96738 7.27748 8.87736 7.49257C8.78734 7.70765 8.6221 7.88335 8.41196 7.98743L6.20851 9.08097C7.28858 11.4505 9.20319 13.3484 11.5936 14.419L12.6968 12.2348C12.8018 12.0265 12.9791 11.8627 13.196 11.7735C13.413 11.6843 13.6552 11.6756 13.8781 11.749L18.2645 13.1987C18.459 13.2629 18.6281 13.3862 18.748 13.551C18.8678 13.7159 18.9323 13.9139 18.9323 14.1171V17.2903C18.9323 17.8037 18.7265 18.2959 18.3604 18.6589C17.9942 19.0219 17.4976 19.2258 16.9797 19.2258H16.0034C7.91601 19.2258 1.35938 12.7265 1.35938 4.70968V3.74194Z" stroke="white" stroke-width="2" stroke-linecap="round" stroke-linejoin="round"/>
</svg>
